# xmcd
#
# Track frame offsets:
# 150
# 15741
# 37557
# 58320
# 75597
# 91051
# 115217
# 139581
# 158729
# 180931
#
# Disc length: 2544 seconds
#
#
# Revision: 0
# Processed by: cddbd v1.5.1PL2 Copyright (c) Steve Scherf et al.
# Submitted via: FreeRIP 2.944 
#
DISCID=6909ee0a
DTITLE=David Bowen - Blue Soul
DYEAR=2003
DGENRE=Blues, Soul and Inspirational
TTITLE0=Every Day
TTITLE1=I Want To Get It
TTITLE2=Dave's Blues
TTITLE3=Summertime
TTITLE4=I'm Single
TTITLE5=Tonight
TTITLE6=Necessary
TTITLE7=Too Many Lovers
TTITLE8=Just a Closer Walk
TTITLE9=I Need These
EXTD=
EXTT0=
EXTT1=
EXTT2=
EXTT3=
EXTT4=
EXTT5=
EXTT6=
EXTT7=
EXTT8=
EXTT9=
PLAYORDER=
